<svg width="204" height="382" viewBox="0 0 204 382" fill="none" xmlns="http://www.w3.org/2000/svg">
<path d="M14.5177 368.838V329.463H25.9114L32.2761 354.914L38.7195 329.463H50.0346V368.838H42.0197V339.39L35.3406 368.838H29.133L22.5325 339.39V368.838H14.5177Z" fill="#AE876A"/>
<path d="M62.6174 368.838V354.98L54.0524 335.859H63.0103L66.9391 344.32L67.4892 346.852L68.0392 344.32L72.2824 335.859H80.4544L71.5752 355.38V368.838H62.6174Z" fill="#AE876A"/>
<path d="M95.9986 369.638C93.4317 369.638 91.153 369.371 89.1624 368.838C87.2241 368.35 85.6788 367.306 84.5263 365.707C83.4262 364.063 82.8762 361.643 82.8762 358.445V337.791C82.8762 335.437 83.4262 333.616 84.5263 332.328C85.6788 331.04 87.2503 330.151 89.2409 329.663C91.2316 329.13 93.5103 328.863 96.0772 328.863C98.6964 328.863 100.949 329.13 102.835 329.663C104.773 330.196 106.266 331.106 107.314 332.394C108.361 333.682 108.885 335.481 108.885 337.791V345.919H99.7703V337.458C99.7703 336.392 99.6131 335.592 99.2988 335.059C98.9845 334.482 98.5392 334.104 97.963 333.927C97.4392 333.749 96.8105 333.66 96.0772 333.66C95.3438 333.66 94.6889 333.749 94.1127 333.927C93.5365 334.104 93.0912 334.482 92.7769 335.059C92.4626 335.592 92.3054 336.392 92.3054 337.458V361.31C92.3054 362.331 92.4626 363.131 92.7769 363.708C93.0912 364.241 93.5365 364.619 94.1127 364.841C94.6889 365.018 95.3438 365.107 96.0772 365.107C96.8105 365.107 97.4392 365.018 97.963 364.841C98.5392 364.619 98.9845 364.241 99.2988 363.708C99.6131 363.131 99.7703 362.331 99.7703 361.31V353.514H108.885V358.378C108.885 361.62 108.361 364.063 107.314 365.707C106.266 367.306 104.773 368.35 102.835 368.838C100.949 369.371 98.6702 369.638 95.9986 369.638Z" fill="#AE876A"/>
<path d="M111.986 368.838L120.079 335.859H132.966L140.902 368.838H130.923L129.509 363.375H122.987L121.651 368.838H111.986ZM123.065 359.644H129.509L126.287 341.988L123.065 359.644Z" fill="#AE876A"/>
<path d="M144.813 368.838V335.859H165.714V341.122H154.164V348.917H163.986V354.847H154.164V368.838H144.813Z" fill="#AE876A"/>
<path d="M170.136 368.838V335.859H191.037V341.122H179.486V348.917H189.308V354.847H179.486V363.641H191.037V368.838H170.136Z" fill="#AE876A"/>
<path d="M11.2174 377.166H192.609V380.498H11.2174V377.166Z" fill="#AE876A"/>
<path d="M2.06031 200.194C62.9749 208.359 86.311 225.092 101.919 284.169C40.9818 279.329 19.0494 261.035 2.06031 200.194Z" fill="#05531B"/>
<path d="M2.06031 103.032C62.9749 111.197 86.311 127.93 101.919 187.007C40.9818 182.168 19.0494 163.874 2.06031 103.032Z" fill="#05531B"/>
<path d="M201.777 200.194C140.863 208.359 117.527 225.092 101.919 284.169C162.856 279.329 184.788 261.035 201.777 200.194Z" fill="#05531B"/>
<path d="M201.777 103.032C140.863 111.197 117.527 127.93 101.919 187.007C162.856 182.168 184.788 163.874 201.777 103.032Z" fill="#05531B"/>
<path d="M101.919 120.382C133.82 80.3726 144.689 55.4404 101.919 2.40068C64.5225 49.2389 62.8822 75.1054 101.919 120.382Z" fill="#05531B"/>
<path d="M101.919 284.169C86.311 225.092 62.9749 208.359 2.06031 200.194C19.0494 261.035 40.9818 279.329 101.919 284.169ZM101.919 284.169C117.527 225.092 140.863 208.359 201.777 200.194C184.788 261.035 162.856 279.329 101.919 284.169ZM101.919 187.007C86.311 127.93 62.9749 111.197 2.06031 103.032C19.0494 163.874 40.9818 182.168 101.919 187.007ZM101.919 187.007C117.527 127.93 140.863 111.197 201.777 103.032C184.788 163.874 162.856 182.168 101.919 187.007ZM101.919 120.382V309.847M101.919 120.382C133.82 80.3726 144.689 55.4404 101.919 2.40068C64.5225 49.2389 62.8822 75.1054 101.919 120.382ZM14.5177 368.838V329.463H25.9114L32.2761 354.914L38.7195 329.463H50.0346V368.838H42.0197V339.39L35.3406 368.838H29.133L22.5325 339.39V368.838H14.5177ZM62.6174 368.838V354.98L54.0524 335.859H63.0103L66.9391 344.32L67.4892 346.852L68.0392 344.32L72.2824 335.859H80.4544L71.5752 355.38V368.838H62.6174ZM95.9986 369.638C93.4317 369.638 91.153 369.371 89.1624 368.838C87.2241 368.35 85.6788 367.306 84.5263 365.707C83.4262 364.063 82.8762 361.643 82.8762 358.445V337.791C82.8762 335.437 83.4262 333.616 84.5263 332.328C85.6788 331.04 87.2503 330.151 89.2409 329.663C91.2316 329.13 93.5103 328.863 96.0771 328.863C98.6964 328.863 100.949 329.13 102.835 329.663C104.773 330.196 106.266 331.106 107.314 332.394C108.361 333.682 108.885 335.481 108.885 337.791V345.919H99.7703V337.458C99.7703 336.392 99.6131 335.592 99.2988 335.059C98.9845 334.482 98.5392 334.104 97.963 333.927C97.4392 333.749 96.8105 333.66 96.0771 333.66C95.3438 333.66 94.689 333.749 94.1127 333.927C93.5365 334.104 93.0912 334.482 92.7769 335.059C92.4626 335.592 92.3054 336.392 92.3054 337.458V361.31C92.3054 362.331 92.4626 363.131 92.7769 363.708C93.0912 364.241 93.5365 364.619 94.1127 364.841C94.689 365.018 95.3438 365.107 96.0771 365.107C96.8105 365.107 97.4392 365.018 97.963 364.841C98.5392 364.619 98.9845 364.241 99.2988 363.708C99.6131 363.131 99.7703 362.331 99.7703 361.31V353.514H108.885V358.378C108.885 361.62 108.361 364.063 107.314 365.707C106.266 367.306 104.773 368.35 102.835 368.838C100.949 369.371 98.6702 369.638 95.9986 369.638ZM111.986 368.838L120.079 335.859H132.966L140.902 368.838H130.923L129.509 363.375H122.987L121.651 368.838H111.986ZM123.065 359.644H129.509L126.287 341.988L123.065 359.644ZM144.813 368.838V335.859H165.714V341.122H154.164V348.917H163.986V354.847H154.164V368.838H144.813ZM170.136 368.838V335.859H191.037V341.122H179.486V348.917H189.308V354.847H179.486V363.641H191.037V368.838H170.136ZM11.2174 377.166H192.609V380.498H11.2174V377.166Z" stroke="#B3896A" stroke-width="3"/>
</svg>
